<svg version="1.2" xmlns="http://www.w3.org/2000/svg" viewBox="0 0 4148 4350" width="30" height="31">
	<title>music_disabled_icon-svg</title>
	<style>
		.s0 { fill: #ffffff } 
		.s1 { fill: none;stroke: #ffffff;stroke-width: 288.1 } 
	</style>
	<path id="Layer" class="s0" d="m3298.7 864.2h-2136.7c-73.7 0-133.4 59.8-133.4 133.5v2007.5c-47.3-10.4-96.7-16.5-148-16.5-311.3 0-563.7 204.5-563.7 456.8 0 252.3 252.4 456.8 563.7 456.8 311.3 0 563.8-204.5 563.8-456.8v-1928.5h1572v1102.6c-47.2-10.4-96.7-16.5-148-16.5-311.3 0-563.7 204.5-563.7 456.9 0 252.3 252.4 456.7 563.7 456.7 311.4 0 563.8-204.4 563.8-456.7v-2062.3c0-73.7-59.8-133.4-133.5-133.5z"/>
	<path id="Layer" class="s1" d="m115.2 4240l3910.5-4124.8"/>
</svg>